<svg preserveAspectRatio="none" width="100%" height="100%" overflow="visible" style="display: block;" viewBox="0 0 93 93" fill="none" xmlns="http://www.w3.org/2000/svg">
<g id="Frame 39247" filter="url(#filter0_i_0_4)">
<rect width="93" height="93" rx="32" fill="var(--fill-0, #195F50)"/>
<path id="Vector 433" d="M35.2071 51.1799L29.2228 45.1767C29.1505 45.1042 29.0901 45.0227 29.045 44.9307C27.9699 42.7378 26.8484 37.7514 30.5199 34.2525C34.2696 30.6789 38.9568 31.1962 42.0035 33.7823L45.2846 36.7875M35.2071 51.1799L42.8345 43.9535C43.2666 43.544 43.9576 43.6025 44.3699 44.032C45.836 45.5596 48.2399 47.1205 49.9718 45.0673C52.0342 42.6222 49.0343 40.1301 47.3938 38.7195L45.2846 36.7875M40.5974 52.5905L38.2537 54.7064C37.7069 55.255 36.332 56.023 35.2071 54.7064C34.0821 53.3899 34.7383 51.8068 35.2071 51.1799M38.2537 54.7064C37.7069 55.4901 36.9413 57.3396 38.2537 58.4681C39.8943 59.8787 41.3004 59.1734 42.0035 58.4681M42.0035 58.4681C42.566 57.9039 43.8003 56.6656 44.3471 56.1171M42.0035 58.4681C41.4567 59.3301 40.8317 61.3834 42.7066 62.7C44.5815 64.0165 47.9407 60.6623 49.0343 59.1734M49.0343 59.1734C49.7374 60.3489 51.8467 62.2297 53.9559 60.584C55.6433 59.2674 53.8778 56.5872 52.7841 55.4117M49.0343 59.1734C48.3313 57.9978 47.3938 56.8223 49.0343 55.4117C50.6749 54.0011 52.1112 54.5914 52.7841 55.4117M45.2846 36.7875L49.0343 33.077C50.9092 31.5096 55.8308 29.3154 60.518 33.077C66.377 37.7791 63.3304 44.8321 62.1585 46.2427C61.2211 47.3712 60.6743 47.81 60.518 47.8884M57.0026 52.1203C57.8619 53.2174 59.9556 54.9885 61.4555 53.2958C63.3304 51.1799 62.6273 49.5341 60.518 47.8884C59.6587 46.948 57.5182 45.5374 55.8308 47.4182C54.1434 49.299 55.9089 51.3366 57.0026 52.1203ZM57.0026 52.1203C58.0182 52.9039 59.5806 54.9415 57.7057 56.8223C55.8308 58.7032 53.6434 56.6656 52.7841 55.4117M57.0026 52.1203C54.4246 49.5341 52.7841 47.8884 50.6749 50.0043C48.9875 51.6971 51.378 54.3146 52.7841 55.4117" stroke="var(--stroke-0, white)" stroke-width="2" stroke-linecap="round"/>
</g>
<defs>
<filter id="filter0_i_0_4" x="0" y="0" width="93" height="97" filterUnits="userSpaceOnUse" color-interpolation-filters="sRGB">
<feFlood flood-opacity="0" result="BackgroundImageFix"/>
<feBlend mode="normal" in="SourceGraphic" in2="BackgroundImageFix" result="shape"/>
<feColorMatrix in="SourceAlpha" type="matrix" values="0 0 0 0 0 0 0 0 0 0 0 0 0 0 0 0 0 0 127 0" result="hardAlpha"/>
<feOffset dy="4"/>
<feGaussianBlur stdDeviation="2"/>
<feComposite in2="hardAlpha" operator="arithmetic" k2="-1" k3="1"/>
<feColorMatrix type="matrix" values="0 0 0 0 0 0 0 0 0 0 0 0 0 0 0 0 0 0 0.25 0"/>
<feBlend mode="normal" in2="shape" result="effect1_innerShadow_0_4"/>
</filter>
</defs>
</svg>
